<?xml version="1.0" standalone="no"?>
<!DOCTYPE svg PUBLIC "-//W3C//DTD SVG 20010904//EN"
 "http://www.w3.org/TR/2001/REC-SVG-20010904/DTD/svg10.dtd">
<svg version="1.0" xmlns="http://www.w3.org/2000/svg"
 width="819.000000pt" height="819.000000pt" viewBox="0 0 819.000000 819.000000"
 preserveAspectRatio="xMidYMid meet">
<metadata>
Created by potrace 1.14, written by Peter Selinger 2001-2017
</metadata>
<g transform="translate(0.000000,819.000000) scale(0.100000,-0.100000)"
fill="#000000" stroke="none">
<path d="M3848 8186 c-1 -2 -43 -7 -93 -10 -49 -4 -99 -9 -110 -11 -11 -2 -44
-7 -73 -10 -84 -8 -150 -19 -312 -51 -237 -47 -520 -137 -795 -252 -167 -71
-431 -213 -610 -329 -100 -65 -328 -235 -395 -293 -19 -17 -59 -52 -89 -78
-30 -26 -97 -90 -150 -142 -186 -185 -314 -334 -450 -525 -39 -55 -74 -104
-78 -110 -25 -33 -63 -96 -63 -105 0 -5 -4 -10 -8 -10 -5 0 -16 -15 -25 -32
-9 -18 -33 -60 -52 -93 -54 -92 -168 -319 -210 -420 -21 -49 -45 -108 -55
-130 -19 -43 -49 -134 -51 -150 0 -5 -4 -14 -9 -20 -8 -10 -80 -250 -96 -320
-1 -5 -9 -37 -17 -70 -9 -33 -19 -80 -22 -105 -4 -24 -8 -47 -10 -50 -5 -8
-35 -191 -41 -250 -2 -25 -7 -56 -9 -70 -20 -110 -27 -605 -12 -785 28 -329
99 -675 198 -963 22 -64 41 -121 43 -127 28 -92 203 -470 284 -610 97 -169
244 -387 330 -490 18 -22 36 -45 40 -50 4 -6 22 -28 40 -50 207 -246 442 -469
692 -656 122 -92 309 -216 400 -266 30 -16 71 -39 90 -50 427 -241 961 -411
1502 -477 260 -32 776 -28 993 9 17 2 53 7 80 10 28 4 69 10 93 16 23 5 59 12
80 15 20 3 53 9 72 14 19 5 46 11 60 14 71 14 275 72 397 113 437 146 863 378
1230 669 264 209 537 487 708 719 16 22 32 42 36 45 13 10 199 290 199 300 0
5 5 10 10 10 6 0 10 4 10 9 0 5 21 45 47 88 112 189 257 515 341 769 36 109
114 404 126 479 3 17 12 71 20 121 9 50 18 113 21 140 3 27 7 63 10 79 27 193
27 749 0 905 -2 14 -6 48 -10 75 -3 28 -9 75 -15 105 -5 30 -12 73 -16 95 -17
117 -86 390 -139 550 -122 368 -297 721 -513 1035 -56 83 -186 256 -202 270
-3 3 -27 32 -55 65 -87 105 -278 303 -376 390 -105 92 -174 150 -259 213 -52
40 -100 76 -106 81 -9 7 -101 68 -254 167 -97 63 -428 230 -575 289 -214 87
-573 197 -715 219 -19 3 -45 8 -57 11 -13 3 -31 7 -40 9 -22 4 -84 14 -138 21
-22 3 -51 8 -65 10 -14 2 -56 7 -95 11 -38 3 -81 8 -95 11 -29 5 -586 13 -592
9z"/>
</g>
</svg>
